<?xml version="1.0" standalone="no"?>
<!DOCTYPE svg PUBLIC "-//W3C//DTD SVG 20010904//EN"
 "http://www.w3.org/TR/2001/REC-SVG-20010904/DTD/svg10.dtd">
<svg version="1.0" xmlns="http://www.w3.org/2000/svg"
 width="400.000000pt" height="400.000000pt" viewBox="0 0 400.000000 400.000000"
 preserveAspectRatio="xMidYMid meet">
<metadata>
Created by potrace 1.11, written by Peter Selinger 2001-2013
</metadata>
<g transform="translate(0.000000,400.000000) scale(0.100000,-0.100000)"
fill="#000000" stroke="none">
<path d="M91 3963 c-5 -21 -11 -110 -14 -198 -3 -88 -10 -194 -16 -235 -5 -41
-14 -138 -21 -215 -6 -77 -17 -217 -25 -311 -19 -215 -20 -473 -3 -456 13 13
23 172 19 307 -3 108 2 122 41 130 58 11 163 48 170 59 7 10 8 23 28 191 5 50
15 128 21 175 5 47 13 121 15 165 4 51 13 96 26 125 19 40 33 132 41 260 l2
35 -137 3 -137 3 -10 -38z"/>
<path d="M832 3971 c28 -34 72 -61 99 -61 17 0 19 4 13 23 -5 12 -8 32 -7 45
1 21 -3 22 -64 22 l-65 0 24 -29z"/>
<path d="M1221 3987 c23 -18 32 -47 30 -98 -3 -62 16 -79 64 -56 19 9 35 21
35 27 0 5 -14 39 -32 75 -32 64 -33 65 -73 65 -33 -1 -37 -3 -24 -13z"/>
<path d="M1516 3973 c3 -16 12 -44 21 -63 16 -37 12 -35 314 -179 59 -27 109
-58 113 -67 3 -9 0 -28 -8 -42 -41 -75 -41 -68 -5 -101 l34 -31 -40 5 c-149
17 -149 17 -180 -15 -16 -16 -26 -33 -22 -36 4 -4 0 -19 -7 -33 -7 -14 -18
-39 -22 -56 -8 -24 -17 -32 -49 -38 -48 -11 -68 -20 -65 -31 4 -13 -53 -67
-92 -87 -21 -11 -45 -31 -54 -45 -16 -23 -16 -26 5 -48 l22 -23 -34 -49 c-30
-45 -83 -164 -72 -164 3 0 17 19 32 43 102 158 238 300 348 364 123 71 214 85
352 53 29 -7 60 -9 70 -5 49 21 141 14 208 -15 35 -16 124 -30 184 -30 45 0
64 -5 91 -25 19 -14 44 -25 56 -25 13 0 26 -4 29 -10 3 -5 -3 -10 -15 -10 -34
0 -37 -30 -6 -54 70 -54 121 -105 154 -154 22 -34 48 -60 69 -68 35 -15 38
-23 47 -115 5 -51 4 -57 -16 -66 -21 -9 -20 -11 26 -61 57 -60 57 -87 1 -80
-43 5 -48 -7 -30 -69 8 -27 15 -57 15 -69 0 -11 11 -30 25 -42 29 -25 31 -35
10 -52 -8 -7 -15 -23 -15 -36 0 -29 -15 -31 -32 -4 -7 11 -16 20 -19 20 -10 0
-21 -58 -23 -117 -1 -45 -5 -55 -37 -86 -39 -38 -77 -126 -86 -199 -3 -27 -11
-48 -18 -48 -17 0 -34 -64 -28 -108 7 -51 -26 -122 -73 -159 -44 -35 -94 -115
-102 -162 -3 -20 -17 -53 -31 -75 l-25 -38 29 -24 c17 -13 36 -24 43 -24 44 0
139 83 163 143 7 18 23 53 36 80 13 26 19 47 13 47 -6 0 -15 11 -22 24 -9 21
-7 30 20 63 17 22 42 64 55 95 26 58 100 148 122 148 7 0 23 8 36 19 34 26
170 39 188 17 8 -9 21 -16 30 -16 9 0 34 -9 57 -19 31 -14 47 -30 63 -64 19
-40 21 -52 12 -104 -7 -48 -22 -78 -69 -149 -156 -233 -377 -358 -499 -283
-31 19 -36 20 -50 7 -25 -26 -35 -96 -21 -150 10 -39 9 -57 -1 -91 -7 -23 -17
-80 -22 -127 -5 -47 -11 -101 -15 -121 -4 -26 -1 -40 11 -52 18 -18 70 -23 80
-8 3 5 20 13 38 16 17 4 49 16 69 26 45 23 118 25 159 4 28 -15 35 -14 99 7
l70 22 27 -20 c16 -12 37 -43 48 -70 11 -27 30 -62 43 -78 44 -57 46 -56 -244
-56 l-267 0 -28 33 c-15 17 -39 45 -52 61 -38 46 -54 31 -62 -60 -4 -42 -4
-109 1 -148 10 -87 12 -392 2 -463 -8 -58 3 -69 22 -23 10 24 15 28 30 20 10
-6 22 -19 25 -30 6 -19 15 -20 281 -20 151 0 274 2 274 4 0 2 -11 27 -25 54
-39 77 -31 95 19 43 23 -24 28 -36 23 -60 -4 -21 -2 -31 9 -35 9 -3 95 -6 191
-6 154 0 174 2 163 15 -21 26 17 31 50 6 26 -18 43 -21 135 -21 l105 0 0 274
0 274 -33 21 c-49 30 -133 43 -317 47 -91 3 -174 6 -185 9 -20 4 -20 12 -18
681 0 372 4 696 7 719 4 24 16 67 27 96 25 66 38 116 49 189 5 30 14 78 20
105 16 73 13 221 -6 285 -9 30 -27 73 -40 96 -13 22 -24 49 -24 60 0 11 -14
36 -31 57 -25 30 -32 50 -37 103 -7 65 -8 67 -42 78 -22 7 -36 19 -38 31 -2
11 -12 29 -22 40 -9 11 -20 32 -24 48 -4 18 -13 27 -26 27 -12 0 -26 13 -36
33 -25 49 -54 76 -94 87 -21 6 -57 25 -81 43 -24 18 -64 45 -89 59 -25 14 -66
49 -91 77 -28 30 -55 51 -67 51 -12 0 -26 8 -31 19 -6 10 -23 21 -39 24 -16 3
-43 17 -60 31 -35 30 -75 33 -100 8 -15 -15 -31 -17 -122 -12 -138 7 -240 6
-320 -4 l-65 -7 28 25 c15 14 40 26 55 26 l27 1 -35 29 c-19 17 -64 47 -100
67 -36 20 -108 65 -160 99 -154 100 -165 104 -275 104 l-95 0 6 -27z m957
-340 c-7 -2 -21 -2 -30 0 -10 3 -4 5 12 5 17 0 24 -2 18 -5z m185 -5 c7 -7 12
-20 12 -30 0 -14 -4 -16 -17 -9 -10 5 -26 12 -35 15 -10 3 -18 12 -18 21 0 18
41 20 58 3z m-629 -29 c33 -12 42 -44 19 -67 -14 -14 -32 -16 -24 -3 3 5 -3
11 -14 14 -23 6 -35 30 -26 52 6 18 5 18 45 4z m386 -65 c0 -28 -1 -29 -43
-26 -33 3 -47 -1 -57 -14 -11 -16 -16 -17 -37 -6 -18 10 -31 10 -52 3 -43 -17
-76 -14 -76 7 0 39 30 54 76 38 13 -4 25 -1 33 8 8 9 25 12 55 9 24 -3 52 0
62 6 28 15 39 8 39 -25z m65 -38 c0 -29 -23 -77 -42 -87 -20 -11 -20 -9 -13
27 4 21 11 47 16 56 11 21 39 24 39 4z m-330 -146 c11 -8 7 -9 -15 -4 -37 8
-45 14 -19 14 10 0 26 -5 34 -10z m839 -2197 c34 -50 39 -88 17 -119 -12 -15
-25 -19 -73 -17 -78 3 -139 26 -135 50 4 26 116 133 140 133 13 0 31 -17 51
-47z m382 -738 c31 -13 79 -27 107 -31 49 -6 56 -11 179 -133 96 -94 123 -127
110 -129 -19 -4 -165 50 -204 76 -28 18 -101 34 -114 26 -6 -4 -6 -11 2 -20
20 -24 2 -28 -28 -6 -15 11 -52 30 -81 42 -40 17 -57 32 -71 59 -23 46 -43
129 -35 142 8 14 65 3 135 -26z"/>
<path d="M2622 3888 c2 -94 6 -118 23 -140 11 -15 25 -28 32 -28 18 0 50 51
57 95 4 22 23 63 42 92 25 36 34 58 29 72 -6 19 -14 21 -97 21 l-90 0 4 -112z"/>
<path d="M2990 3996 c0 -2 17 -15 37 -27 69 -43 208 -148 268 -202 67 -61 120
-82 163 -66 15 6 83 19 152 30 69 11 152 26 185 35 33 9 93 23 133 32 l72 16
0 93 0 93 -505 0 c-278 0 -505 -2 -505 -4z"/>
<path d="M464 3879 c-17 -19 -19 -39 -21 -203 0 -99 -6 -238 -12 -308 -18
-209 -31 -370 -42 -521 -6 -78 -15 -191 -19 -252 -5 -60 -14 -173 -19 -250 -6
-77 -15 -192 -20 -255 -6 -63 -13 -179 -17 -256 l-7 -142 24 -15 c13 -9 43
-19 66 -23 l42 -6 -1 93 c-1 52 4 137 11 189 6 52 15 131 18 175 3 44 13 90
21 103 12 19 13 29 2 68 -10 34 -10 54 -2 82 11 38 20 113 26 212 1 30 7 78
14 106 7 35 8 62 1 90 -6 21 -14 57 -19 79 -5 24 -20 50 -38 66 l-30 27 49 24
c31 14 51 31 54 43 6 31 17 135 20 185 10 189 36 430 51 474 12 34 13 51 2
110 -12 63 -17 72 -52 98 -46 33 -76 36 -102 7z"/>
<path d="M1425 3710 c-7 -12 -2 -22 43 -77 36 -45 61 -53 82 -28 10 12 6 24
-20 65 -28 44 -36 50 -65 50 -19 0 -37 -4 -40 -10z"/>
<path d="M743 3638 c-4 -7 -8 -69 -9 -138 -2 -123 -8 -234 -24 -440 -8 -105
-30 -395 -50 -670 -6 -80 -15 -199 -21 -265 -6 -66 -12 -178 -14 -250 -2 -71
-8 -170 -14 -220 -19 -155 -17 -161 52 -174 52 -9 71 1 36 20 -20 10 -20 12
-6 21 11 6 17 22 17 43 0 19 11 69 25 111 18 55 22 81 15 94 -13 24 -13 66 0
91 10 18 31 310 34 489 1 47 5 105 9 130 4 25 9 138 11 252 5 192 4 211 -15
253 -12 27 -27 45 -37 45 -9 1 4 12 30 25 26 14 50 30 54 36 4 6 10 85 15 175
4 90 13 173 19 183 11 21 14 120 4 146 -8 19 -75 55 -103 55 -11 0 -23 -6 -28
-12z"/>
<path d="M3355 3506 c-8 -48 14 -106 40 -106 11 0 15 13 15 56 0 60 -13 94
-35 94 -9 0 -16 -16 -20 -44z"/>
<path d="M1015 3390 c-4 -6 -11 -86 -16 -178 -5 -92 -13 -214 -18 -272 -6 -58
-15 -199 -21 -315 -6 -115 -18 -309 -27 -430 -36 -512 -53 -896 -41 -911 5 -7
24 -14 44 -16 l35 -4 -1 125 c-1 129 9 191 68 411 11 41 26 111 32 155 20 137
40 218 65 271 14 28 34 77 45 109 21 62 19 75 -25 119 -32 32 -31 51 4 116 27
50 28 54 14 87 -7 19 -17 79 -20 134 l-6 99 -36 22 c-20 12 -46 30 -58 41 -13
11 -23 16 -24 11 -1 -5 -5 2 -9 16 -10 32 -12 102 -2 116 4 7 42 19 85 29 52
12 81 23 87 35 13 25 13 136 0 161 -25 45 -157 98 -175 69z"/>
<path d="M1341 3109 c-6 -18 -11 -82 -11 -143 0 -61 -3 -121 -6 -133 -7 -26
-24 -31 -24 -8 0 17 -16 20 -25 5 -4 -6 -13 -48 -20 -93 -7 -45 -17 -91 -21
-102 -8 -24 1 -15 38 35 14 19 39 67 55 105 28 64 31 83 36 218 6 145 0 178
-22 116z"/>
<path d="M3915 2948 c-33 -4 -93 -15 -133 -23 -40 -8 -85 -15 -100 -15 -16 0
-37 -6 -48 -14 -18 -14 -18 -15 9 -21 18 -5 42 -2 65 8 20 8 78 21 127 27 113
15 165 28 165 40 0 11 -1 11 -85 -2z"/>
<path d="M182 2827 c-19 -20 -21 -31 -16 -70 7 -53 20 -61 30 -19 3 15 10 42
16 60 14 45 -2 59 -30 29z"/>
<path d="M1447 2714 c-8 -8 27 -65 58 -94 35 -33 32 -40 -22 -40 -55 0 -51 -7
19 -32 29 -10 60 -26 68 -36 20 -25 50 -35 65 -22 9 8 10 21 4 52 -12 52 -26
78 -56 101 -12 10 -23 26 -23 36 0 9 -5 22 -12 29 -12 12 -90 17 -101 6z"/>
<path d="M2855 2700 c-9 -14 13 -40 41 -50 17 -7 21 -15 17 -32 -4 -18 -2 -20
5 -8 12 15 5 68 -11 88 -12 15 -43 16 -52 2z"/>
<path d="M2040 2662 c0 -6 6 -12 13 -15 6 -2 -9 -8 -35 -12 -26 -4 -53 -13
-59 -21 -6 -8 -17 -14 -25 -14 -7 0 -34 -18 -59 -40 -25 -22 -55 -40 -65 -40
-24 0 -54 -44 -46 -66 4 -12 14 -15 34 -11 17 3 34 -1 45 -11 10 -10 42 -22
70 -27 50 -10 52 -12 51 -43 -2 -36 17 -42 50 -17 29 22 36 19 36 -18 0 -51
25 -79 68 -75 32 3 38 7 47 36 10 36 19 39 40 15 107 -125 107 -127 25 -121
-33 2 -60 1 -60 -3 0 -12 99 -31 128 -24 34 8 72 43 72 67 0 27 -36 58 -69 58
-21 0 -45 13 -78 42 -62 54 -118 78 -187 81 -55 2 -56 2 -33 19 12 10 38 20
57 24 19 3 44 8 55 12 18 5 18 6 -5 13 -14 4 -40 7 -59 8 -25 1 -31 4 -23 14
5 6 12 23 14 37 3 23 8 26 78 33 41 5 79 12 85 18 5 6 5 9 -3 9 -6 0 -18 13
-26 29 -13 24 -23 30 -58 33 -24 3 -51 8 -60 12 -11 5 -18 4 -18 -2z m99 -350
c0 -15 -3 -21 -6 -14 -3 7 -16 18 -30 23 -21 8 -23 12 -13 24 18 22 50 1 49
-33z"/>
<path d="M2198 2643 c7 -3 16 -2 19 1 4 3 -2 6 -13 5 -11 0 -14 -3 -6 -6z"/>
<path d="M135 2549 c-9 -29 5 -120 21 -137 12 -11 14 -1 14 72 0 68 -3 86 -14
86 -8 0 -18 -9 -21 -21z"/>
<path d="M1322 2548 c-28 -14 -51 -83 -34 -100 10 -10 20 -9 44 0 30 11 34 10
54 -15 19 -24 25 -26 50 -18 16 6 33 20 39 32 6 11 16 27 23 35 13 17 -15 37
-88 62 -52 18 -57 18 -88 4z m143 -68 c0 -20 -5 -25 -25 -27 -22 -1 -23 -1 -2
4 29 6 18 23 -15 23 -22 0 -24 2 -13 15 20 25 55 15 55 -15z"/>
<path d="M0 2428 c0 -44 3 -59 10 -48 13 20 13 97 0 105 -6 4 -10 -17 -10 -57z"/>
<path d="M1538 2468 c12 -12 25 -18 29 -14 4 4 -1 14 -11 22 -31 22 -43 17
-18 -8z"/>
<path d="M85 2309 c-22 -6 -50 -7 -62 -4 -23 5 -23 5 -23 -107 0 -105 2 -114
21 -127 20 -12 21 -19 16 -77 -4 -40 -2 -74 5 -90 14 -29 56 -43 69 -23 13 20
11 133 -2 146 -9 9 -9 26 0 69 6 32 11 70 11 85 0 15 11 41 25 57 25 29 34 72
16 72 -5 0 -15 2 -23 4 -7 2 -31 0 -53 -5z"/>
<path d="M1601 2266 c-33 -34 -66 -131 -54 -161 2 -8 27 -21 54 -30 53 -18 79
-45 79 -84 0 -30 -46 -132 -67 -148 -13 -10 -12 -13 11 -19 35 -8 72 2 97 27
18 18 20 30 16 82 -2 34 -12 82 -21 107 -10 24 -19 69 -21 100 -2 30 -7 78
-12 105 -10 64 -34 70 -82 21z"/>
<path d="M2382 2196 c-13 -29 -7 -36 29 -36 34 0 43 13 29 40 -15 27 -44 25
-58 -4z"/>
<path d="M1325 2003 c8 -34 23 -53 41 -53 7 0 29 -10 49 -21 27 -16 39 -19 48
-10 16 16 41 14 92 -11 24 -12 48 -18 52 -14 15 15 -23 62 -68 84 -37 18 -51
21 -73 12 -42 -16 -66 -12 -102 15 -42 32 -48 31 -39 -2z"/>
<path d="M2781 1934 c0 -11 3 -14 6 -6 3 7 2 16 -1 19 -3 4 -6 -2 -5 -13z"/>
<path d="M3186 1835 c-34 -8 -68 -22 -80 -35 l-21 -22 35 7 c19 4 49 11 66 17
48 17 81 4 94 -38 10 -29 10 -38 0 -44 -11 -7 -63 -161 -56 -167 1 -1 20 28
41 65 80 136 90 177 55 212 -22 22 -48 23 -134 5z"/>
<path d="M0 1820 c0 -25 10 -30 70 -37 69 -8 64 10 -10 35 -58 20 -60 20 -60
2z"/>
<path d="M3038 1716 c-9 -22 -7 -28 18 -50 16 -14 32 -26 36 -26 14 0 14 36
-1 68 -18 38 -37 41 -53 8z"/>
<path d="M2980 1700 c0 -14 -3 -35 -6 -47 -4 -13 -2 -23 4 -23 15 0 25 57 13
77 -9 16 -10 15 -11 -7z"/>
<path d="M1178 1670 c-34 -21 -18 -29 50 -28 122 2 244 -31 282 -77 17 -21
108 -67 122 -63 16 6 -14 32 -93 83 -117 76 -136 83 -244 89 -65 4 -106 3
-117 -4z"/>
<path d="M1232 1537 c-37 -40 -26 -68 33 -83 17 -4 47 -19 69 -33 28 -19 52
-25 90 -26 45 0 51 2 54 22 4 26 -47 63 -85 63 -12 0 -28 7 -35 16 -56 69 -90
80 -126 41z"/>
<path d="M1059 1322 c-44 -26 -82 -98 -87 -163 -4 -55 -3 -59 34 -98 32 -32
127 -95 273 -179 23 -13 6 -28 -102 -89 -56 -32 -140 -81 -187 -110 -82 -52
-87 -53 -140 -48 -59 6 -111 -4 -118 -23 -2 -7 8 -9 32 -5 28 4 36 2 36 -9 0
-9 -7 -21 -16 -29 -26 -21 -76 -126 -114 -239 l-35 -105 -57 -5 c-78 -7 -87
-19 -49 -63 25 -28 28 -36 16 -41 -8 -3 -15 -13 -15 -22 0 -12 -6 -10 -31 10
-32 27 -54 33 -64 16 -3 -6 -19 -10 -36 -10 -25 0 -29 4 -29 29 0 15 9 57 20
91 24 74 21 89 -22 114 l-32 19 -25 -30 c-14 -16 -48 -38 -76 -48 -27 -11 -79
-40 -114 -66 -35 -27 -77 -51 -93 -54 -40 -9 -38 -49 4 -92 l32 -33 -32 0
c-25 0 -32 -4 -32 -20 0 -19 7 -20 251 -20 240 0 252 1 277 21 l27 21 3 -21
c3 -20 9 -21 148 -21 129 0 145 2 151 18 3 9 16 31 27 47 12 17 30 47 41 69
11 21 37 57 57 80 20 24 48 67 61 97 13 30 34 63 47 74 l23 20 -7 -25 c-14
-51 -19 -123 -9 -117 6 4 13 33 16 66 5 65 22 94 107 186 46 50 47 52 74 190
15 77 31 144 35 148 14 14 142 -41 178 -75 58 -56 271 -86 418 -60 33 6 94 16
135 22 41 6 93 20 116 30 22 11 48 20 58 20 21 0 161 80 251 143 33 23 92 74
132 112 63 62 72 76 78 116 4 28 3 49 -3 53 -5 3 -29 2 -53 -3 -37 -7 -60 -23
-138 -99 -71 -69 -116 -103 -185 -140 -84 -45 -98 -49 -180 -54 -50 -4 -100
-2 -112 2 -14 6 -40 3 -74 -8 -50 -16 -53 -16 -65 2 -11 14 -21 17 -42 11 -77
-19 -220 -20 -249 -1 -14 10 -26 11 -37 4 -21 -11 -53 -2 -61 17 -2 7 4 39 15
69 23 66 23 80 5 95 -8 7 -17 28 -21 47 -3 19 -13 38 -21 41 -8 3 -22 19 -30
35 -12 23 -21 29 -42 26 -18 -2 -26 -8 -23 -18 8 -35 5 -45 -14 -46 -11 0 -28
-4 -38 -8 -10 -5 -31 -6 -48 -2 -27 5 -32 2 -45 -30 -12 -29 -19 -35 -41 -32
-14 2 -31 12 -37 23 -16 29 -27 34 -58 28 -27 -5 -28 -5 -28 41 0 49 5 54 36
31 32 -24 47 -19 41 15 -8 35 -9 34 31 14 37 -18 52 -12 52 22 0 27 -18 31
-52 13 -18 -10 -25 -8 -39 10 -20 24 -44 26 -80 3z"/>
<path d="M1450 735 c0 -5 5 -17 10 -25 5 -8 10 -10 10 -5 0 6 -5 17 -10 25 -5
8 -10 11 -10 5z"/>
<path d="M561 589 c-52 -17 -74 -31 -116 -74 -66 -69 -85 -103 -65 -115 31
-20 58 -11 65 19 9 42 72 121 95 121 31 0 132 48 125 60 -9 14 -31 12 -104
-11z"/>
<path d="M1901 496 c-13 -7 -35 -33 -48 -57 l-23 -44 32 -6 c49 -8 74 -25 88
-58 7 -17 20 -33 30 -36 11 -3 32 -21 49 -40 34 -39 63 -44 99 -19 36 25 26
63 -25 97 -39 26 -43 32 -43 71 0 47 -23 76 -73 95 -37 14 -56 13 -86 -3z"/>
<path d="M0 288 c0 -15 9 -18 65 -18 36 0 65 4 65 8 0 4 -29 12 -65 18 -59 9
-65 8 -65 -8z"/>
<path d="M1734 45 c-19 -46 -20 -45 26 -45 44 0 49 10 28 55 -16 35 -36 31
-54 -10z"/>
</g>
</svg>
